<svg class="nc-icon outline" xmlns="http://www.w3.org/2000/svg" xmlns:xlink="http://www.w3.org/1999/xlink" x="0px" y="0px" width="64px" height="64px" viewBox="0 0 64 64"><g transform="translate(0, 0)">
<polyline data-cap="butt" data-color="color-2" fill="none" stroke="#444444" stroke-width="2" stroke-miterlimit="10" points="14,62 2,62 2,44 
	14,42 " stroke-linejoin="miter" stroke-linecap="butt"></polyline>
<polyline data-cap="butt" data-color="color-2" fill="none" stroke="#444444" stroke-width="2" stroke-miterlimit="10" points="50,62 62,62 62,44 
	50,42 " stroke-linejoin="miter" stroke-linecap="butt"></polyline>
<line data-color="color-2" fill="none" stroke="#444444" stroke-width="2" stroke-linecap="square" stroke-miterlimit="10" x1="28" y1="14" x2="28" y2="2" stroke-linejoin="miter"></line>
<line data-color="color-2" fill="none" stroke="#444444" stroke-width="2" stroke-linecap="square" stroke-miterlimit="10" x1="36" y1="14" x2="36" y2="2" stroke-linejoin="miter"></line>
<line data-color="color-2" fill="none" stroke="#444444" stroke-width="2" stroke-linecap="square" stroke-miterlimit="10" x1="28" y1="7" x2="36" y2="7" stroke-linejoin="miter"></line>
<rect x="14" y="14" fill="none" stroke="#444444" stroke-width="2" stroke-linecap="square" stroke-miterlimit="10" width="36" height="48" stroke-linejoin="miter"></rect>
<line fill="none" stroke="#444444" stroke-width="2" stroke-linecap="square" stroke-miterlimit="10" x1="22" y1="22" x2="26" y2="22" stroke-linejoin="miter"></line>
<line fill="none" stroke="#444444" stroke-width="2" stroke-linecap="square" stroke-miterlimit="10" x1="38" y1="22" x2="42" y2="22" stroke-linejoin="miter"></line>
<line fill="none" stroke="#444444" stroke-width="2" stroke-linecap="square" stroke-miterlimit="10" x1="22" y1="30" x2="26" y2="30" stroke-linejoin="miter"></line>
<line fill="none" stroke="#444444" stroke-width="2" stroke-linecap="square" stroke-miterlimit="10" x1="38" y1="30" x2="42" y2="30" stroke-linejoin="miter"></line>
<line fill="none" stroke="#444444" stroke-width="2" stroke-linecap="square" stroke-miterlimit="10" x1="22" y1="38" x2="26" y2="38" stroke-linejoin="miter"></line>
<line fill="none" stroke="#444444" stroke-width="2" stroke-linecap="square" stroke-miterlimit="10" x1="38" y1="38" x2="42" y2="38" stroke-linejoin="miter"></line>
<line fill="none" stroke="#444444" stroke-width="2" stroke-linecap="square" stroke-miterlimit="10" x1="22" y1="46" x2="26" y2="46" stroke-linejoin="miter"></line>
<line fill="none" stroke="#444444" stroke-width="2" stroke-linecap="square" stroke-miterlimit="10" x1="38" y1="46" x2="42" y2="46" stroke-linejoin="miter"></line>
<polyline fill="none" stroke="#444444" stroke-width="2" stroke-linecap="square" stroke-miterlimit="10" points="28,62 28,53 
	36,53 36,62 " stroke-linejoin="miter"></polyline>
</g></svg>