<?xml version="1.0" encoding="UTF-8" standalone="no"?>
<svg width="80px" height="80px" viewBox="0 0 80 80" version="1.1" xmlns="http://www.w3.org/2000/svg" xmlns:xlink="http://www.w3.org/1999/xlink" xmlns:sketch="http://www.bohemiancoding.com/sketch/ns">
    <!-- Generator: Sketch 3.4 (15575) - http://www.bohemiancoding.com/sketch -->
    <title>Artboard Copy</title>
    <desc>Created with Sketch.</desc>
    <defs></defs>
    <g id="Page-1" stroke="none" stroke-width="1" fill="none" fill-rule="evenodd" sketch:type="MSPage">
        <g id="Artboard-Copy" sketch:type="MSArtboardGroup" stroke="#949994" stroke-width="3">
            <path d="M40,22 L40,30" id="Shape" sketch:type="MSShapeGroup"></path>
            <path d="M20.2,30.2 L26,36" id="Shape" sketch:type="MSShapeGroup"></path>
            <circle id="Oval" sketch:type="MSShapeGroup" cx="40" cy="16" r="6"></circle>
            <circle id="Oval" sketch:type="MSShapeGroup" cx="16" cy="26" r="6"></circle>
            <path d="M59.8,30.2 L54,36" id="Shape" sketch:type="MSShapeGroup"></path>
            <circle id="Oval" sketch:type="MSShapeGroup" cx="64" cy="26" r="6"></circle>
            <path d="M33.7,57.8 L22,64 L22,70 L58,70 L58,64 L46.3,57.8" id="Shape" sketch:type="MSShapeGroup"></path>
            <path d="M40,60 L40,60 C34.5,60 30,55.5 30,50 L30,48 C30,42.5 34.5,38 40,38 L40,38 C45.5,38 50,42.5 50,48 L50,50 C50,55.5 45.5,60 40,60 L40,60 L40,60 L40,60 Z" id="Shape" sketch:type="MSShapeGroup"></path>
        </g>
    </g>
</svg>